<svg xmlns="http://www.w3.org/2000/svg" width="86" height="86" viewBox="0 0 86 86">
  <g id="arrow" transform="translate(1733 4703) rotate(180)">
    <path id="Ellipse_1" data-name="Ellipse 1" d="M43,5A38.011,38.011,0,0,0,28.21,78.016,38.011,38.011,0,0,0,57.79,7.984,37.757,37.757,0,0,0,43,5m0-5A43,43,0,1,1,0,43,43,43,0,0,1,43,0Z" transform="translate(1647 4617)"/>
    <path id="ligne" d="M9.439-1456.439l-9-9-.008-.008-.011-.011-.016-.017-.009-.01-.017-.019,0,0a1.492,1.492,0,0,1-.256-.406l0-.006-.01-.025-.007-.017-.006-.016L.085-1466l0-.009-.009-.027,0-.006-.009-.03v0l-.009-.033h0q-.009-.034-.017-.068v0l-.007-.032v0l-.005-.028,0-.009,0-.024,0-.021,0-.012A1.507,1.507,0,0,1,0-1466.5a1.5,1.5,0,0,1,.439-1.061l9-9a1.5,1.5,0,0,1,2.121,0,1.5,1.5,0,0,1,0,2.121L5.121-1468H22.5a1.5,1.5,0,0,1,1.5,1.5,1.5,1.5,0,0,1-1.5,1.5H5.121l6.439,6.439a1.5,1.5,0,0,1,0,2.121,1.492,1.492,0,0,1-1.06.439A1.494,1.494,0,0,1,9.439-1456.439Z" transform="translate(1679 6127)"/>
  </g>
</svg>
